<svg xmlns="http://www.w3.org/2000/svg" data-name="Layer 1" viewBox="0 0 512 640" x="0px" y="0px"><title>Pattern dot outline</title><g><path d="M71,59A12,12,0,1,0,83,71,12,12,0,0,0,71,59Zm0,19a7,7,0,1,1,7-7A7,7,0,0,1,71,78Z"/><path d="M145,59a12,12,0,1,0,12,12A12,12,0,0,0,145,59Zm0,19a7,7,0,1,1,7-7A7,7,0,0,1,145,78Z"/><path d="M219,59a12,12,0,1,0,12,12A12,12,0,0,0,219,59Zm0,19a7,7,0,1,1,7-7A7,7,0,0,1,219,78Z"/><path d="M293,59a12,12,0,1,0,12,12A12,12,0,0,0,293,59Zm0,19a7,7,0,1,1,7-7A7,7,0,0,1,293,78Z"/><path d="M367,59a12,12,0,1,0,12,12A12,12,0,0,0,367,59Zm0,19a7,7,0,1,1,7-7A7,7,0,0,1,367,78Z"/><path d="M441,83a12,12,0,1,0-12-12A12,12,0,0,0,441,83Zm0-19a7,7,0,1,1-7,7A7,7,0,0,1,441,64Z"/><path d="M71,133a12,12,0,1,0,12,12A12,12,0,0,0,71,133Zm0,19a7,7,0,1,1,7-7A7,7,0,0,1,71,152Z"/><path d="M145,133a12,12,0,1,0,12,12A12,12,0,0,0,145,133Zm0,19a7,7,0,1,1,7-7A7,7,0,0,1,145,152Z"/><path d="M219,133a12,12,0,1,0,12,12A12,12,0,0,0,219,133Zm0,19a7,7,0,1,1,7-7A7,7,0,0,1,219,152Z"/><path d="M293,133a12,12,0,1,0,12,12A12,12,0,0,0,293,133Zm0,19a7,7,0,1,1,7-7A7,7,0,0,1,293,152Z"/><path d="M367,133a12,12,0,1,0,12,12A12,12,0,0,0,367,133Zm0,19a7,7,0,1,1,7-7A7,7,0,0,1,367,152Z"/><path d="M441,133a12,12,0,1,0,12,12A12,12,0,0,0,441,133Zm0,19a7,7,0,1,1,7-7A7,7,0,0,1,441,152Z"/><path d="M71,207a12,12,0,1,0,12,12A12,12,0,0,0,71,207Zm0,19a7,7,0,1,1,7-7A7,7,0,0,1,71,226Z"/><path d="M145,207a12,12,0,1,0,12,12A12,12,0,0,0,145,207Zm0,19a7,7,0,1,1,7-7A7,7,0,0,1,145,226Z"/><path d="M219,207a12,12,0,1,0,12,12A12,12,0,0,0,219,207Zm0,19a7,7,0,1,1,7-7A7,7,0,0,1,219,226Z"/><path d="M293,207a12,12,0,1,0,12,12A12,12,0,0,0,293,207Zm0,19a7,7,0,1,1,7-7A7,7,0,0,1,293,226Z"/><path d="M367,207a12,12,0,1,0,12,12A12,12,0,0,0,367,207Zm0,19a7,7,0,1,1,7-7A7,7,0,0,1,367,226Z"/><path d="M441,207a12,12,0,1,0,12,12A12,12,0,0,0,441,207Zm0,19a7,7,0,1,1,7-7A7,7,0,0,1,441,226Z"/><path d="M71,281a12,12,0,1,0,12,12A12,12,0,0,0,71,281Zm0,19a7,7,0,1,1,7-7A7,7,0,0,1,71,300Z"/><path d="M145,281a12,12,0,1,0,12,12A12,12,0,0,0,145,281Zm0,19a7,7,0,1,1,7-7A7,7,0,0,1,145,300Z"/><path d="M219,281a12,12,0,1,0,12,12A12,12,0,0,0,219,281Zm0,19a7,7,0,1,1,7-7A7,7,0,0,1,219,300Z"/><path d="M293,281a12,12,0,1,0,12,12A12,12,0,0,0,293,281Zm0,19a7,7,0,1,1,7-7A7,7,0,0,1,293,300Z"/><path d="M367,281a12,12,0,1,0,12,12A12,12,0,0,0,367,281Zm0,19a7,7,0,1,1,7-7A7,7,0,0,1,367,300Z"/><path d="M441,281a12,12,0,1,0,12,12A12,12,0,0,0,441,281Zm0,19a7,7,0,1,1,7-7A7,7,0,0,1,441,300Z"/><path d="M71,355a12,12,0,1,0,12,12A12,12,0,0,0,71,355Zm0,19a7,7,0,1,1,7-7A7,7,0,0,1,71,374Z"/><path d="M145,355a12,12,0,1,0,12,12A12,12,0,0,0,145,355Zm0,19a7,7,0,1,1,7-7A7,7,0,0,1,145,374Z"/><path d="M219,355a12,12,0,1,0,12,12A12,12,0,0,0,219,355Zm0,19a7,7,0,1,1,7-7A7,7,0,0,1,219,374Z"/><path d="M293,355a12,12,0,1,0,12,12A12,12,0,0,0,293,355Zm0,19a7,7,0,1,1,7-7A7,7,0,0,1,293,374Z"/><path d="M367,355a12,12,0,1,0,12,12A12,12,0,0,0,367,355Zm0,19a7,7,0,1,1,7-7A7,7,0,0,1,367,374Z"/><path d="M441,355a12,12,0,1,0,12,12A12,12,0,0,0,441,355Zm0,19a7,7,0,1,1,7-7A7,7,0,0,1,441,374Z"/><path d="M71,429a12,12,0,1,0,12,12A12,12,0,0,0,71,429Zm0,19a7,7,0,1,1,7-7A7,7,0,0,1,71,448Z"/><path d="M145,429a12,12,0,1,0,12,12A12,12,0,0,0,145,429Zm0,19a7,7,0,1,1,7-7A7,7,0,0,1,145,448Z"/><path d="M219,429a12,12,0,1,0,12,12A12,12,0,0,0,219,429Zm0,19a7,7,0,1,1,7-7A7,7,0,0,1,219,448Z"/><path d="M293,429a12,12,0,1,0,12,12A12,12,0,0,0,293,429Zm0,19a7,7,0,1,1,7-7A7,7,0,0,1,293,448Z"/><path d="M367,429a12,12,0,1,0,12,12A12,12,0,0,0,367,429Zm0,19a7,7,0,1,1,7-7A7,7,0,0,1,367,448Z"/><path d="M441,429a12,12,0,1,0,12,12A12,12,0,0,0,441,429Zm0,19a7,7,0,1,1,7-7A7,7,0,0,1,441,448Z"/></g><text x="0" y="527" fill="#000000" font-size="5px" font-weight="bold" font-family="'Helvetica Neue', Helvetica, Arial-Unicode, Arial, Sans-serif">Created by Palukx</text><text x="0" y="532" fill="#000000" font-size="5px" font-weight="bold" font-family="'Helvetica Neue', Helvetica, Arial-Unicode, Arial, Sans-serif">from the Noun Project</text></svg>